<?xml version="1.0" encoding="UTF-8"?><svg id="Layer_1" xmlns="http://www.w3.org/2000/svg" viewBox="0 0 1175 464"><path d="m121.45,287.98c-5.9-5-17.69-5-22.11,3.33-4.42,10,1.48,20,8.84,28.33l17.69,13.33c5.9,3.33,10.32-1.67,10.32-8.33l-2.94-15c-1.48-11.67-10.32-21.67-11.79-21.67h-.01Zm1049.82-26.45c-1.74-37.12-8.71-73.68-20.63-108.32-11.79-33.33-32.42-61.65-51.59-89.98-11.04-20.52-26.85-37.23-45.69-48.33-10.93-3.78-142.69-9.78-295.31-14.86-49.52-1.65-112.6,44.82-163.1,43.47-54.87-1.47-150.89-35.36-198.49-36.22-99.93-1.79-171.44-2.37-179.53.43C140.29,27.72,114.82,42.81,47.02,86.13-8.98,122.79-7.51,224.44,13.13,282.76c22.06,59.82,66.69,62.55,119.33,88.24,42.74,21.67,85.54,73.39,131.24,81.72,16.41,5.92,75.21,9.44,155.07,11.21,69.14,1.53,160.69-22.18,247.59-22.85,120.86-.93,238.9,20.35,330.18,17.13,74.14-2.62,120.21-23.67,130.36-26.43,23.06-22.34,43.43-36.05,45.85-70.27,4.42-33.33,1.48-66.65-1.48-99.98h0Z" style="stroke-width:0px;"/></svg>