<?xml version="1.0" encoding="utf-8"?>
<!-- Generator: Adobe Illustrator 27.9.0, SVG Export Plug-In . SVG Version: 6.00 Build 0)  -->
<svg version="1.1" id="Layer_1" xmlns="http://www.w3.org/2000/svg" xmlns:xlink="http://www.w3.org/1999/xlink" x="0px" y="0px"
	 viewBox="0 0 463 464" style="enable-background:new 0 0 463 464;" xml:space="preserve">
<path d="M31.7,337.2c-5.8-4.3-17.4-4.3-21.7,2.9c-4.3,8.7,1.5,17.4,8.7,24.6L36,376.3c5.8,2.9,10.1-1.5,10.1-7.2l-2.9-13
	C41.8,345.9,33.1,337.2,31.7,337.2L31.7,337.2z M303.6,435.6l-85.4-8.7c-11.6,0-23.1-1.4-33.3-4.3c-10.4-3.2-20.5-7.1-30.4-11.6
	c-10.1-4.3-24.6-14.5-36.2-15.9c-5.9,0.2-11.7,1.2-17.4,2.9c-4.3,1.5-7.2,7.2-4.3,13c4.3,5.8,10.1,11.6,17.4,14.5
	c11.6,5.8,24.6,8.7,37.6,13c34.7,8.7,68,24.6,102.7,24.6c18-0.2,35.7-4.2,52.1-11.6C313.8,447.2,312.3,437,303.6,435.6L303.6,435.6z
	 M458.4,220c-1.7-32.2-8.6-64-20.2-94c-11.6-28.9-31.8-53.5-50.6-78.1c-10.8-17.8-26.4-32.3-44.8-41.9c-25.9-7.9-53.6-7.9-79.6,0
	c-75.2,17.4-150.5,43.4-217,81C-8.8,118.8-7.4,207,12.9,257.6c21.7,51.9,62.6,93.4,114.3,115.7c42,18.8,86.8,24.6,131.6,31.8
	c55,8.7,120.1,14.5,162-21.7c22.6-19.4,36.7-47,39.1-76.7C464.2,277.9,461.3,249,458.4,220L458.4,220z"/>
</svg>
